<svg width="130" height="136" viewBox="0 0 130 136" fill="none" xmlns="http://www.w3.org/2000/svg">
<g clip-path="url(#clip0_3882_1275)">
<path d="M117.82 64.75C117.82 94.16 94.4102 118 65.5202 118C53.1933 118.01 41.273 113.591 31.9302 105.55C22.7171 97.68 16.463 86.9037 14.2002 75C13.5392 71.6132 13.2043 68.1707 13.2002 64.72C13.2002 35.31 36.6102 11.47 65.5002 11.47C75.762 11.472 85.7898 14.536 94.3002 20.27C98.6023 23.1658 102.454 26.6803 105.73 30.7C113.562 40.2981 117.827 52.3124 117.8 64.7L117.82 64.75Z" fill="#F93052"/>
<path d="M115.09 47.7L48.7797 115.21C42.6035 113.083 36.8861 109.805 31.9297 105.55C32.1397 105.28 32.3597 105.04 32.5997 104.79L103.91 32.18C104.461 31.6232 105.079 31.1362 105.75 30.73C109.868 35.7721 113.033 41.5228 115.09 47.7Z" fill="#F15A24"/>
<path d="M94.3202 20.3C94.1402 20.51 93.9702 20.71 93.7702 20.91L22.4602 93.52C22.2602 93.72 22.0702 93.9 21.8602 94.08C18.0941 88.2767 15.4925 81.7964 14.2002 75L75.6202 12.5C82.3095 13.8327 88.6665 16.4843 94.3202 20.3Z" fill="#F15A24"/>
<path d="M129.31 61.5C127.043 76.9368 119.298 91.043 107.491 101.242C95.6843 111.442 80.6024 117.054 65 117.054C49.3976 117.054 34.3157 111.442 22.5087 101.242C10.7017 91.043 2.95735 76.9368 0.69 61.5C0.231775 64.6459 0.00117565 67.8209 0 71C0 88.2391 6.8482 104.772 19.0381 116.962C31.2279 129.152 47.7609 136 65 136C82.2391 136 98.7721 129.152 110.962 116.962C123.152 104.772 130 88.2391 130 71C129.999 67.8209 129.768 64.6459 129.31 61.5Z" fill="#ED1C24"/>
<path d="M65 20C73.9002 20 82.6005 22.6392 90.0007 27.5839C97.4009 32.5285 103.169 39.5566 106.575 47.7792C109.981 56.0019 110.872 65.0499 109.135 73.7791C107.399 82.5082 103.113 90.5264 96.8198 96.8198C90.5265 103.113 82.5082 107.399 73.7791 109.135C65.05 110.872 56.002 109.981 47.7793 106.575C39.5566 103.169 32.5286 97.4009 27.5839 90.0007C22.6392 82.6004 20 73.9002 20 65C20.0133 53.0693 24.7586 41.6311 33.1948 33.1948C41.6311 24.7585 53.0694 20.0132 65 20ZM65 0C52.1442 0 39.5772 3.81218 28.888 10.9545C18.1988 18.0968 9.86756 28.2484 4.94786 40.1256C0.028163 52.0028 -1.25905 65.0721 1.24899 77.6809C3.75703 90.2896 9.94767 101.872 19.0381 110.962C28.1285 120.052 39.7104 126.243 52.3192 128.751C64.9279 131.259 77.9973 129.972 89.8745 125.052C101.752 120.132 111.903 111.801 119.046 101.112C126.188 90.4229 130 77.8558 130 65C130 47.7609 123.152 31.2279 110.962 19.0381C98.7721 6.8482 82.2391 0 65 0V0Z" fill="#F7931E"/>
<path d="M99.7303 56.5269L59.9303 33.5269C58.192 32.5256 56.2209 31.9991 54.2149 32C52.2088 32.0009 50.2383 32.5294 48.5009 33.5323C46.7636 34.5352 45.3205 35.9773 44.3164 37.714C43.3123 39.4507 42.7826 41.4209 42.7803 43.4269V89.4269C42.7826 91.433 43.3123 93.4031 44.3164 95.1398C45.3205 96.8765 46.7636 98.3186 48.5009 99.3215C50.2383 100.324 52.2088 100.853 54.2149 100.854C56.2209 100.855 58.192 100.328 59.9303 99.3269L99.7303 76.3269C101.466 75.3219 102.907 73.8782 103.909 72.1406C104.91 70.403 105.438 68.4326 105.438 66.4269C105.438 64.4212 104.91 62.4508 103.909 60.7133C102.907 58.9757 101.466 57.532 99.7303 56.5269Z" fill="#ED1C24"/>
<path d="M91.472 58.5983L61.5652 41.2169C60.1903 40.4189 58.6312 39.9992 57.0445 40C55.4578 40.0008 53.8991 40.4219 52.5249 41.2211C51.1507 42.0204 50.0092 43.1697 49.215 44.5537C48.4208 45.9378 48.0018 47.5079 48 49.1066V83.8934C48.0018 85.4921 48.4208 87.0622 49.215 88.4462C50.0092 89.8303 51.1507 90.9796 52.5249 91.7789C53.8991 92.5781 55.4578 92.9992 57.0445 93C58.6312 93.0008 60.1903 92.5811 61.5652 91.7831L91.472 74.3938C92.8485 73.5939 93.9918 72.4428 94.7866 71.0564C95.5815 69.67 96 68.0971 96 66.496C96 64.8949 95.5815 63.322 94.7866 61.9356C93.9918 60.5492 92.8485 59.3982 91.472 58.5983Z" fill="white"/>
<path d="M54 48C57.3137 48 60 45.3137 60 42C60 38.6863 57.3137 36 54 36C50.6863 36 48 38.6863 48 42C48 45.3137 50.6863 48 54 48Z" fill="white"/>
<path d="M63 50C64.6569 50 66 48.6569 66 47C66 45.3431 64.6569 44 63 44C61.3431 44 60 45.3431 60 47C60 48.6569 61.3431 50 63 50Z" fill="white"/>
</g>
<defs>
<clipPath id="clip0_3882_1275">
<rect width="130" height="136" fill="white"/>
</clipPath>
</defs>
</svg>
