<svg width="307" height="66" viewBox="0 0 307 66" fill="none" xmlns="http://www.w3.org/2000/svg">
<g filter="url(#filter0_d_3941_950)">
<path d="M2 28.007C2 12.5391 14.5391 0 30.007 0H276.993C292.461 0 305 12.5391 305 28.007V31.993C305 47.4609 292.461 60 276.993 60H30.007C14.5391 60 2 47.4609 2 31.993V28.007Z" fill="#F7931E"/>
<path d="M2 0H305H2M305 31.993C305 48.5654 291.565 62 274.993 62H32.007C15.4346 62 2 48.5654 2 31.993C2 46.3563 14.5391 58 30.007 58H276.993C292.461 58 305 46.3563 305 31.993ZM305 31.993M2 60V0V60M2 60M305 0V60V0" fill="#ED1C24"/>
<g filter="url(#filter1_d_3941_950)">
<mask id="path-3-outside-1_3941_950" maskUnits="userSpaceOnUse" x="101.104" y="14" width="104" height="33" fill="black">
<rect fill="white" x="101.104" y="14" width="104" height="33"/>
<path d="M116.733 25.949C117.229 26.1731 117.733 26.4291 118.245 26.7172C118.773 27.0053 119.245 27.3574 119.661 27.7735C120.093 28.1896 120.446 28.6937 120.718 29.2858C121.006 29.862 121.166 30.5501 121.198 31.3503C121.246 32.4866 121.062 33.4949 120.646 34.3751C120.229 35.2393 119.637 35.9755 118.869 36.5836C118.117 37.1758 117.213 37.6399 116.156 37.976C115.1 38.2961 113.964 38.4801 112.748 38.5281C112.187 38.5441 111.611 38.5121 111.019 38.4321C110.427 38.3681 109.843 38.2641 109.267 38.12C108.691 37.976 108.13 37.808 107.586 37.6159C107.042 37.4079 106.53 37.1918 106.05 36.9677L107.874 31.8305C108.114 31.9265 108.403 32.0545 108.739 32.2146C109.075 32.3586 109.435 32.4946 109.819 32.6227C110.203 32.7507 110.603 32.8627 111.019 32.9587C111.435 33.0548 111.843 33.0948 112.244 33.0788C112.836 33.0468 113.332 32.9427 113.732 32.7667C114.148 32.5907 114.348 32.2946 114.332 31.8785C114.316 31.6064 114.172 31.3984 113.9 31.2543C113.644 31.1103 113.332 30.9663 112.964 30.8222C112.724 30.7582 112.404 30.6702 112.003 30.5581C111.619 30.4461 111.203 30.2941 110.755 30.102C110.307 29.91 109.851 29.6779 109.387 29.4059C108.939 29.1338 108.523 28.8057 108.138 28.4216C107.77 28.0375 107.458 27.5974 107.202 27.1013C106.962 26.5892 106.834 26.005 106.818 25.3489C106.786 24.2286 106.978 23.2363 107.394 22.3721C107.81 21.4919 108.379 20.7477 109.099 20.1396C109.819 19.5154 110.659 19.0433 111.619 18.7232C112.58 18.3871 113.604 18.1951 114.692 18.1471C115.7 18.0991 116.701 18.1551 117.693 18.3151C118.685 18.4591 119.613 18.7072 120.478 19.0593L119.061 24.6047C118.421 24.3326 117.837 24.1085 117.309 23.9325C116.781 23.7405 116.164 23.5964 115.46 23.5004C115.252 23.4684 114.972 23.4524 114.62 23.4524C114.284 23.4524 113.948 23.4924 113.612 23.5724C113.292 23.6364 113.012 23.7485 112.772 23.9085C112.532 24.0685 112.404 24.2926 112.388 24.5807C112.388 24.7087 112.444 24.8127 112.556 24.8927C112.684 24.9568 112.828 25.0128 112.988 25.0608C113.164 25.0928 113.34 25.1248 113.516 25.1568C113.692 25.1728 113.836 25.1888 113.948 25.2048C114.412 25.3008 114.772 25.3809 115.028 25.4449C115.3 25.5089 115.436 25.5409 115.436 25.5409C115.884 25.6369 116.317 25.773 116.733 25.949ZM121.746 24.3886L127.099 23.9565L126.835 37.808L121.746 38.2401V24.3886ZM121.722 18.3151L127.219 18.075L126.931 22.3001L121.698 22.6842L121.722 18.3151ZM130.404 37.6159C130.964 37.808 131.524 37.968 132.085 38.096C132.661 38.2241 133.253 38.2881 133.861 38.2881C134.117 38.2881 134.373 38.2721 134.629 38.2401C134.885 38.2081 135.117 38.136 135.325 38.024C135.533 37.928 135.702 37.7919 135.83 37.6159C135.958 37.4239 136.022 37.1758 136.022 36.8717C136.022 36.5676 135.942 36.3196 135.782 36.1275C135.638 35.9195 135.429 35.7594 135.157 35.6474C134.901 35.5194 134.605 35.4394 134.269 35.4074C133.933 35.3593 133.589 35.3353 133.237 35.3353C132.821 35.3353 132.397 35.3994 131.965 35.5274C131.532 35.6394 131.132 35.7915 130.764 35.9835L131.22 34.5431C130.164 34.031 129.34 33.3348 128.748 32.4546C128.172 31.5584 127.884 30.4781 127.884 29.2138C127.884 28.5577 128.004 27.8855 128.244 27.1973C128.5 26.4931 128.892 25.853 129.42 25.2768C129.948 24.7007 130.62 24.2286 131.436 23.8605C132.253 23.4924 133.229 23.3083 134.365 23.3083C134.941 23.3083 135.445 23.3484 135.878 23.4284C136.31 23.5084 136.718 23.6124 137.102 23.7405L137.51 21.2198L141.351 22.8762L140.103 25.3248C140.615 25.821 140.999 26.3971 141.255 27.0533C141.527 27.6934 141.663 28.3816 141.663 29.1178C141.663 30.126 141.455 30.9903 141.039 31.7104C140.639 32.4146 140.039 33.0308 139.238 33.5589C140.807 34.4391 141.591 35.7674 141.591 37.5439C141.591 38.3921 141.407 39.1443 141.039 39.8004C140.671 40.4726 140.143 41.0328 139.454 41.4809C138.782 41.929 137.966 42.2651 137.006 42.4891C136.062 42.7292 135.005 42.8492 133.837 42.8492C132.429 42.8492 131.26 42.7292 130.332 42.4891C129.404 42.2491 128.652 42.033 128.076 41.841L130.404 37.6159ZM135.037 30.8702C135.582 30.7582 135.99 30.5341 136.262 30.1981C136.534 29.862 136.63 29.4859 136.55 29.0698C136.454 28.6537 136.206 28.3496 135.806 28.1576C135.421 27.9655 134.965 27.9255 134.437 28.0375C133.893 28.1656 133.485 28.3976 133.213 28.7337C132.941 29.0698 132.845 29.4379 132.925 29.838C133.005 30.2541 133.237 30.5662 133.621 30.7742C134.021 30.9663 134.493 30.9983 135.037 30.8702ZM147.972 25.6609H148.068C148.596 24.9408 149.132 24.4526 149.676 24.1966C150.236 23.9405 150.844 23.8125 151.501 23.8125C152.173 23.8125 152.765 23.9325 153.277 24.1726C153.789 24.4126 154.221 24.7487 154.573 25.1808C154.925 25.6129 155.19 26.117 155.366 26.6932C155.558 27.2693 155.654 27.8935 155.654 28.5657V37.856L150.468 38.2881L150.54 29.5499C150.556 29.2618 150.444 29.0218 150.204 28.8297C149.98 28.6377 149.708 28.5416 149.388 28.5416C149.084 28.5416 148.804 28.6377 148.548 28.8297C148.308 29.0058 148.188 29.2538 148.188 29.5739L148.284 38.2401L143.171 37.88L142.978 24.2206L147.972 23.8125V25.6609ZM179.574 35.8875H179.526C179.206 36.7677 178.702 37.3918 178.014 37.7599C177.341 38.128 176.549 38.3121 175.637 38.3121C174.437 38.3121 173.46 37.96 172.708 37.2558C171.972 36.5356 171.604 35.4954 171.604 34.135V24.0525L176.957 23.6204L176.813 32.5026C176.797 32.8867 176.877 33.1668 177.053 33.3428C177.245 33.5029 177.533 33.5829 177.917 33.5829C178.238 33.5829 178.494 33.5029 178.686 33.3428C178.894 33.1828 178.99 32.9107 178.974 32.5266L178.83 24.0525L184.351 23.6204L183.991 37.904L179.574 38.096V35.8875ZM190.804 23.6444V25.2768C191.316 24.7167 191.845 24.3086 192.389 24.0525C192.949 23.7805 193.613 23.6444 194.381 23.6444C195.341 23.6444 196.214 23.8605 196.998 24.2926C197.798 24.7087 198.47 25.2608 199.014 25.949C199.575 26.6372 200.007 27.4214 200.311 28.3016C200.615 29.1658 200.767 30.046 200.767 30.9422C200.767 31.9025 200.607 32.8307 200.287 33.7269C199.967 34.6072 199.511 35.3914 198.918 36.0795C198.342 36.7677 197.646 37.3198 196.83 37.7359C196.014 38.152 195.117 38.3601 194.141 38.3601C193.645 38.3601 193.109 38.2881 192.533 38.144C191.973 38 191.469 37.7119 191.02 37.2798L191.164 42.057L186.099 42.4891L185.835 24.0765L190.804 23.6444ZM194.069 32.9347C194.789 32.5987 195.269 32.1265 195.51 31.5184C195.766 30.9102 195.766 30.3421 195.51 29.814C195.253 29.2698 194.813 28.9097 194.189 28.7337C193.581 28.5416 192.917 28.6137 192.197 28.9497C191.461 29.3018 190.964 29.782 190.708 30.3901C190.452 30.9823 190.46 31.5504 190.732 32.0945C190.86 32.3666 191.036 32.5987 191.26 32.7907C191.485 32.9667 191.741 33.0948 192.029 33.1748C192.333 33.2548 192.653 33.2788 192.989 33.2468C193.341 33.2148 193.701 33.1108 194.069 32.9347Z"/>
</mask>
<path d="M116.733 25.949C117.229 26.1731 117.733 26.4291 118.245 26.7172C118.773 27.0053 119.245 27.3574 119.661 27.7735C120.093 28.1896 120.446 28.6937 120.718 29.2858C121.006 29.862 121.166 30.5501 121.198 31.3503C121.246 32.4866 121.062 33.4949 120.646 34.3751C120.229 35.2393 119.637 35.9755 118.869 36.5836C118.117 37.1758 117.213 37.6399 116.156 37.976C115.1 38.2961 113.964 38.4801 112.748 38.5281C112.187 38.5441 111.611 38.5121 111.019 38.4321C110.427 38.3681 109.843 38.2641 109.267 38.12C108.691 37.976 108.13 37.808 107.586 37.6159C107.042 37.4079 106.53 37.1918 106.05 36.9677L107.874 31.8305C108.114 31.9265 108.403 32.0545 108.739 32.2146C109.075 32.3586 109.435 32.4946 109.819 32.6227C110.203 32.7507 110.603 32.8627 111.019 32.9587C111.435 33.0548 111.843 33.0948 112.244 33.0788C112.836 33.0468 113.332 32.9427 113.732 32.7667C114.148 32.5907 114.348 32.2946 114.332 31.8785C114.316 31.6064 114.172 31.3984 113.9 31.2543C113.644 31.1103 113.332 30.9663 112.964 30.8222C112.724 30.7582 112.404 30.6702 112.003 30.5581C111.619 30.4461 111.203 30.2941 110.755 30.102C110.307 29.91 109.851 29.6779 109.387 29.4059C108.939 29.1338 108.523 28.8057 108.138 28.4216C107.77 28.0375 107.458 27.5974 107.202 27.1013C106.962 26.5892 106.834 26.005 106.818 25.3489C106.786 24.2286 106.978 23.2363 107.394 22.3721C107.81 21.4919 108.379 20.7477 109.099 20.1396C109.819 19.5154 110.659 19.0433 111.619 18.7232C112.58 18.3871 113.604 18.1951 114.692 18.1471C115.7 18.0991 116.701 18.1551 117.693 18.3151C118.685 18.4591 119.613 18.7072 120.478 19.0593L119.061 24.6047C118.421 24.3326 117.837 24.1085 117.309 23.9325C116.781 23.7405 116.164 23.5964 115.46 23.5004C115.252 23.4684 114.972 23.4524 114.62 23.4524C114.284 23.4524 113.948 23.4924 113.612 23.5724C113.292 23.6364 113.012 23.7485 112.772 23.9085C112.532 24.0685 112.404 24.2926 112.388 24.5807C112.388 24.7087 112.444 24.8127 112.556 24.8927C112.684 24.9568 112.828 25.0128 112.988 25.0608C113.164 25.0928 113.34 25.1248 113.516 25.1568C113.692 25.1728 113.836 25.1888 113.948 25.2048C114.412 25.3008 114.772 25.3809 115.028 25.4449C115.3 25.5089 115.436 25.5409 115.436 25.5409C115.884 25.6369 116.317 25.773 116.733 25.949ZM121.746 24.3886L127.099 23.9565L126.835 37.808L121.746 38.2401V24.3886ZM121.722 18.3151L127.219 18.075L126.931 22.3001L121.698 22.6842L121.722 18.3151ZM130.404 37.6159C130.964 37.808 131.524 37.968 132.085 38.096C132.661 38.2241 133.253 38.2881 133.861 38.2881C134.117 38.2881 134.373 38.2721 134.629 38.2401C134.885 38.2081 135.117 38.136 135.325 38.024C135.533 37.928 135.702 37.7919 135.83 37.6159C135.958 37.4239 136.022 37.1758 136.022 36.8717C136.022 36.5676 135.942 36.3196 135.782 36.1275C135.638 35.9195 135.429 35.7594 135.157 35.6474C134.901 35.5194 134.605 35.4394 134.269 35.4074C133.933 35.3593 133.589 35.3353 133.237 35.3353C132.821 35.3353 132.397 35.3994 131.965 35.5274C131.532 35.6394 131.132 35.7915 130.764 35.9835L131.22 34.5431C130.164 34.031 129.34 33.3348 128.748 32.4546C128.172 31.5584 127.884 30.4781 127.884 29.2138C127.884 28.5577 128.004 27.8855 128.244 27.1973C128.5 26.4931 128.892 25.853 129.42 25.2768C129.948 24.7007 130.62 24.2286 131.436 23.8605C132.253 23.4924 133.229 23.3083 134.365 23.3083C134.941 23.3083 135.445 23.3484 135.878 23.4284C136.31 23.5084 136.718 23.6124 137.102 23.7405L137.51 21.2198L141.351 22.8762L140.103 25.3248C140.615 25.821 140.999 26.3971 141.255 27.0533C141.527 27.6934 141.663 28.3816 141.663 29.1178C141.663 30.126 141.455 30.9903 141.039 31.7104C140.639 32.4146 140.039 33.0308 139.238 33.5589C140.807 34.4391 141.591 35.7674 141.591 37.5439C141.591 38.3921 141.407 39.1443 141.039 39.8004C140.671 40.4726 140.143 41.0328 139.454 41.4809C138.782 41.929 137.966 42.2651 137.006 42.4891C136.062 42.7292 135.005 42.8492 133.837 42.8492C132.429 42.8492 131.26 42.7292 130.332 42.4891C129.404 42.2491 128.652 42.033 128.076 41.841L130.404 37.6159ZM135.037 30.8702C135.582 30.7582 135.99 30.5341 136.262 30.1981C136.534 29.862 136.63 29.4859 136.55 29.0698C136.454 28.6537 136.206 28.3496 135.806 28.1576C135.421 27.9655 134.965 27.9255 134.437 28.0375C133.893 28.1656 133.485 28.3976 133.213 28.7337C132.941 29.0698 132.845 29.4379 132.925 29.838C133.005 30.2541 133.237 30.5662 133.621 30.7742C134.021 30.9663 134.493 30.9983 135.037 30.8702ZM147.972 25.6609H148.068C148.596 24.9408 149.132 24.4526 149.676 24.1966C150.236 23.9405 150.844 23.8125 151.501 23.8125C152.173 23.8125 152.765 23.9325 153.277 24.1726C153.789 24.4126 154.221 24.7487 154.573 25.1808C154.925 25.6129 155.19 26.117 155.366 26.6932C155.558 27.2693 155.654 27.8935 155.654 28.5657V37.856L150.468 38.2881L150.54 29.5499C150.556 29.2618 150.444 29.0218 150.204 28.8297C149.98 28.6377 149.708 28.5416 149.388 28.5416C149.084 28.5416 148.804 28.6377 148.548 28.8297C148.308 29.0058 148.188 29.2538 148.188 29.5739L148.284 38.2401L143.171 37.88L142.978 24.2206L147.972 23.8125V25.6609ZM179.574 35.8875H179.526C179.206 36.7677 178.702 37.3918 178.014 37.7599C177.341 38.128 176.549 38.3121 175.637 38.3121C174.437 38.3121 173.46 37.96 172.708 37.2558C171.972 36.5356 171.604 35.4954 171.604 34.135V24.0525L176.957 23.6204L176.813 32.5026C176.797 32.8867 176.877 33.1668 177.053 33.3428C177.245 33.5029 177.533 33.5829 177.917 33.5829C178.238 33.5829 178.494 33.5029 178.686 33.3428C178.894 33.1828 178.99 32.9107 178.974 32.5266L178.83 24.0525L184.351 23.6204L183.991 37.904L179.574 38.096V35.8875ZM190.804 23.6444V25.2768C191.316 24.7167 191.845 24.3086 192.389 24.0525C192.949 23.7805 193.613 23.6444 194.381 23.6444C195.341 23.6444 196.214 23.8605 196.998 24.2926C197.798 24.7087 198.47 25.2608 199.014 25.949C199.575 26.6372 200.007 27.4214 200.311 28.3016C200.615 29.1658 200.767 30.046 200.767 30.9422C200.767 31.9025 200.607 32.8307 200.287 33.7269C199.967 34.6072 199.511 35.3914 198.918 36.0795C198.342 36.7677 197.646 37.3198 196.83 37.7359C196.014 38.152 195.117 38.3601 194.141 38.3601C193.645 38.3601 193.109 38.2881 192.533 38.144C191.973 38 191.469 37.7119 191.02 37.2798L191.164 42.057L186.099 42.4891L185.835 24.0765L190.804 23.6444ZM194.069 32.9347C194.789 32.5987 195.269 32.1265 195.51 31.5184C195.766 30.9102 195.766 30.3421 195.51 29.814C195.253 29.2698 194.813 28.9097 194.189 28.7337C193.581 28.5416 192.917 28.6137 192.197 28.9497C191.461 29.3018 190.964 29.782 190.708 30.3901C190.452 30.9823 190.46 31.5504 190.732 32.0945C190.86 32.3666 191.036 32.5987 191.26 32.7907C191.485 32.9667 191.741 33.0948 192.029 33.1748C192.333 33.2548 192.653 33.2788 192.989 33.2468C193.341 33.2148 193.701 33.1108 194.069 32.9347Z" fill="#FFD910"/>
<path d="M116.733 25.949C117.229 26.1731 117.733 26.4291 118.245 26.7172C118.773 27.0053 119.245 27.3574 119.661 27.7735C120.093 28.1896 120.446 28.6937 120.718 29.2858C121.006 29.862 121.166 30.5501 121.198 31.3503C121.246 32.4866 121.062 33.4949 120.646 34.3751C120.229 35.2393 119.637 35.9755 118.869 36.5836C118.117 37.1758 117.213 37.6399 116.156 37.976C115.1 38.2961 113.964 38.4801 112.748 38.5281C112.187 38.5441 111.611 38.5121 111.019 38.4321C110.427 38.3681 109.843 38.2641 109.267 38.12C108.691 37.976 108.13 37.808 107.586 37.6159C107.042 37.4079 106.53 37.1918 106.05 36.9677L107.874 31.8305C108.114 31.9265 108.403 32.0545 108.739 32.2146C109.075 32.3586 109.435 32.4946 109.819 32.6227C110.203 32.7507 110.603 32.8627 111.019 32.9587C111.435 33.0548 111.843 33.0948 112.244 33.0788C112.836 33.0468 113.332 32.9427 113.732 32.7667C114.148 32.5907 114.348 32.2946 114.332 31.8785C114.316 31.6064 114.172 31.3984 113.9 31.2543C113.644 31.1103 113.332 30.9663 112.964 30.8222C112.724 30.7582 112.404 30.6702 112.003 30.5581C111.619 30.4461 111.203 30.2941 110.755 30.102C110.307 29.91 109.851 29.6779 109.387 29.4059C108.939 29.1338 108.523 28.8057 108.138 28.4216C107.77 28.0375 107.458 27.5974 107.202 27.1013C106.962 26.5892 106.834 26.005 106.818 25.3489C106.786 24.2286 106.978 23.2363 107.394 22.3721C107.81 21.4919 108.379 20.7477 109.099 20.1396C109.819 19.5154 110.659 19.0433 111.619 18.7232C112.58 18.3871 113.604 18.1951 114.692 18.1471C115.7 18.0991 116.701 18.1551 117.693 18.3151C118.685 18.4591 119.613 18.7072 120.478 19.0593L119.061 24.6047C118.421 24.3326 117.837 24.1085 117.309 23.9325C116.781 23.7405 116.164 23.5964 115.46 23.5004C115.252 23.4684 114.972 23.4524 114.62 23.4524C114.284 23.4524 113.948 23.4924 113.612 23.5724C113.292 23.6364 113.012 23.7485 112.772 23.9085C112.532 24.0685 112.404 24.2926 112.388 24.5807C112.388 24.7087 112.444 24.8127 112.556 24.8927C112.684 24.9568 112.828 25.0128 112.988 25.0608C113.164 25.0928 113.34 25.1248 113.516 25.1568C113.692 25.1728 113.836 25.1888 113.948 25.2048C114.412 25.3008 114.772 25.3809 115.028 25.4449C115.3 25.5089 115.436 25.5409 115.436 25.5409C115.884 25.6369 116.317 25.773 116.733 25.949ZM121.746 24.3886L127.099 23.9565L126.835 37.808L121.746 38.2401V24.3886ZM121.722 18.3151L127.219 18.075L126.931 22.3001L121.698 22.6842L121.722 18.3151ZM130.404 37.6159C130.964 37.808 131.524 37.968 132.085 38.096C132.661 38.2241 133.253 38.2881 133.861 38.2881C134.117 38.2881 134.373 38.2721 134.629 38.2401C134.885 38.2081 135.117 38.136 135.325 38.024C135.533 37.928 135.702 37.7919 135.83 37.6159C135.958 37.4239 136.022 37.1758 136.022 36.8717C136.022 36.5676 135.942 36.3196 135.782 36.1275C135.638 35.9195 135.429 35.7594 135.157 35.6474C134.901 35.5194 134.605 35.4394 134.269 35.4074C133.933 35.3593 133.589 35.3353 133.237 35.3353C132.821 35.3353 132.397 35.3994 131.965 35.5274C131.532 35.6394 131.132 35.7915 130.764 35.9835L131.22 34.5431C130.164 34.031 129.34 33.3348 128.748 32.4546C128.172 31.5584 127.884 30.4781 127.884 29.2138C127.884 28.5577 128.004 27.8855 128.244 27.1973C128.5 26.4931 128.892 25.853 129.42 25.2768C129.948 24.7007 130.62 24.2286 131.436 23.8605C132.253 23.4924 133.229 23.3083 134.365 23.3083C134.941 23.3083 135.445 23.3484 135.878 23.4284C136.31 23.5084 136.718 23.6124 137.102 23.7405L137.51 21.2198L141.351 22.8762L140.103 25.3248C140.615 25.821 140.999 26.3971 141.255 27.0533C141.527 27.6934 141.663 28.3816 141.663 29.1178C141.663 30.126 141.455 30.9903 141.039 31.7104C140.639 32.4146 140.039 33.0308 139.238 33.5589C140.807 34.4391 141.591 35.7674 141.591 37.5439C141.591 38.3921 141.407 39.1443 141.039 39.8004C140.671 40.4726 140.143 41.0328 139.454 41.4809C138.782 41.929 137.966 42.2651 137.006 42.4891C136.062 42.7292 135.005 42.8492 133.837 42.8492C132.429 42.8492 131.26 42.7292 130.332 42.4891C129.404 42.2491 128.652 42.033 128.076 41.841L130.404 37.6159ZM135.037 30.8702C135.582 30.7582 135.99 30.5341 136.262 30.1981C136.534 29.862 136.63 29.4859 136.55 29.0698C136.454 28.6537 136.206 28.3496 135.806 28.1576C135.421 27.9655 134.965 27.9255 134.437 28.0375C133.893 28.1656 133.485 28.3976 133.213 28.7337C132.941 29.0698 132.845 29.4379 132.925 29.838C133.005 30.2541 133.237 30.5662 133.621 30.7742C134.021 30.9663 134.493 30.9983 135.037 30.8702ZM147.972 25.6609H148.068C148.596 24.9408 149.132 24.4526 149.676 24.1966C150.236 23.9405 150.844 23.8125 151.501 23.8125C152.173 23.8125 152.765 23.9325 153.277 24.1726C153.789 24.4126 154.221 24.7487 154.573 25.1808C154.925 25.6129 155.19 26.117 155.366 26.6932C155.558 27.2693 155.654 27.8935 155.654 28.5657V37.856L150.468 38.2881L150.54 29.5499C150.556 29.2618 150.444 29.0218 150.204 28.8297C149.98 28.6377 149.708 28.5416 149.388 28.5416C149.084 28.5416 148.804 28.6377 148.548 28.8297C148.308 29.0058 148.188 29.2538 148.188 29.5739L148.284 38.2401L143.171 37.88L142.978 24.2206L147.972 23.8125V25.6609ZM179.574 35.8875H179.526C179.206 36.7677 178.702 37.3918 178.014 37.7599C177.341 38.128 176.549 38.3121 175.637 38.3121C174.437 38.3121 173.46 37.96 172.708 37.2558C171.972 36.5356 171.604 35.4954 171.604 34.135V24.0525L176.957 23.6204L176.813 32.5026C176.797 32.8867 176.877 33.1668 177.053 33.3428C177.245 33.5029 177.533 33.5829 177.917 33.5829C178.238 33.5829 178.494 33.5029 178.686 33.3428C178.894 33.1828 178.99 32.9107 178.974 32.5266L178.83 24.0525L184.351 23.6204L183.991 37.904L179.574 38.096V35.8875ZM190.804 23.6444V25.2768C191.316 24.7167 191.845 24.3086 192.389 24.0525C192.949 23.7805 193.613 23.6444 194.381 23.6444C195.341 23.6444 196.214 23.8605 196.998 24.2926C197.798 24.7087 198.47 25.2608 199.014 25.949C199.575 26.6372 200.007 27.4214 200.311 28.3016C200.615 29.1658 200.767 30.046 200.767 30.9422C200.767 31.9025 200.607 32.8307 200.287 33.7269C199.967 34.6072 199.511 35.3914 198.918 36.0795C198.342 36.7677 197.646 37.3198 196.83 37.7359C196.014 38.152 195.117 38.3601 194.141 38.3601C193.645 38.3601 193.109 38.2881 192.533 38.144C191.973 38 191.469 37.7119 191.02 37.2798L191.164 42.057L186.099 42.4891L185.835 24.0765L190.804 23.6444ZM194.069 32.9347C194.789 32.5987 195.269 32.1265 195.51 31.5184C195.766 30.9102 195.766 30.3421 195.51 29.814C195.253 29.2698 194.813 28.9097 194.189 28.7337C193.581 28.5416 192.917 28.6137 192.197 28.9497C191.461 29.3018 190.964 29.782 190.708 30.3901C190.452 30.9823 190.46 31.5504 190.732 32.0945C190.86 32.3666 191.036 32.5987 191.26 32.7907C191.485 32.9667 191.741 33.0948 192.029 33.1748C192.333 33.2548 192.653 33.2788 192.989 33.2468C193.341 33.2148 193.701 33.1108 194.069 32.9347Z" fill="url(#paint0_linear_3941_950)" fill-opacity="0.5"/>
<path d="M116.733 25.949L118.276 22.5314L118.235 22.5129L118.194 22.4954L116.733 25.949ZM118.245 26.7172L116.407 29.9856L116.428 29.9976L116.449 30.0093L118.245 26.7172ZM119.661 27.7735L117.01 30.4251L117.035 30.4501L117.06 30.4747L119.661 27.7735ZM120.718 29.2858L117.31 30.8515L117.336 30.9076L117.364 30.9629L120.718 29.2858ZM121.198 31.3503L117.451 31.5002L117.451 31.5087L121.198 31.3503ZM120.646 34.3751L124.024 36.0019L124.03 35.9899L124.036 35.9778L120.646 34.3751ZM118.869 36.5836L121.189 39.5302L121.197 39.5238L118.869 36.5836ZM116.156 37.976L117.244 41.5648L117.269 41.5573L117.293 41.5495L116.156 37.976ZM112.748 38.5281L112.855 42.2766L112.875 42.276L112.896 42.2752L112.748 38.5281ZM111.019 38.4321L111.521 34.7159L111.472 34.7092L111.422 34.7038L111.019 38.4321ZM109.267 38.12L110.176 34.482V34.482L109.267 38.12ZM107.586 37.6159L106.247 41.1186L106.292 41.1359L106.338 41.1521L107.586 37.6159ZM106.05 36.9677L102.516 35.7128L101.376 38.9246L104.464 40.3659L106.05 36.9677ZM107.874 31.8305L109.267 28.3487L105.646 26.9002L104.341 30.5755L107.874 31.8305ZM108.739 32.2146L107.126 35.6003L107.193 35.6322L107.261 35.6614L108.739 32.2146ZM109.819 32.6227L108.633 36.1802V36.1802L109.819 32.6227ZM111.019 32.9587L111.862 29.3048V29.3048L111.019 32.9587ZM112.244 33.0788L112.393 36.8258L112.42 36.8247L112.446 36.8233L112.244 33.0788ZM113.732 32.7667L112.271 29.3131L112.246 29.3235L112.222 29.3343L113.732 32.7667ZM114.332 31.8785L118.079 31.7344L118.078 31.6963L118.076 31.6583L114.332 31.8785ZM113.9 31.2543L112.061 34.5227L112.103 34.5462L112.145 34.5685L113.9 31.2543ZM112.964 30.8222L114.33 27.3301L114.134 27.2532L113.93 27.1988L112.964 30.8222ZM112.003 30.5581L110.953 34.1581L110.973 34.1638L110.992 34.1693L112.003 30.5581ZM110.755 30.102L112.232 26.6552L112.232 26.6552L110.755 30.102ZM109.387 29.4059L107.441 32.6113L107.465 32.6263L107.49 32.641L109.387 29.4059ZM108.138 28.4216L105.431 31.0163L105.459 31.0451L105.487 31.0733L108.138 28.4216ZM107.202 27.1013L103.807 28.6929L103.837 28.7577L103.87 28.8212L107.202 27.1013ZM106.818 25.3489L110.567 25.2574L110.567 25.2496L110.567 25.2418L106.818 25.3489ZM107.394 22.3721L110.773 23.9989L110.779 23.9869L110.785 23.9748L107.394 22.3721ZM109.099 20.1396L111.518 23.0047L111.537 22.9891L111.555 22.9734L109.099 20.1396ZM111.619 18.7232L112.805 22.2808L112.832 22.2719L112.858 22.2627L111.619 18.7232ZM114.692 18.1471L114.857 21.8934L114.87 21.8928L114.692 18.1471ZM117.693 18.3151L117.096 22.0173L117.125 22.022L117.154 22.0262L117.693 18.3151ZM120.478 19.0593L124.111 19.9873L124.92 16.8199L121.892 15.5864L120.478 19.0593ZM119.061 24.6047L117.594 28.0559L121.614 29.7641L122.695 25.5327L119.061 24.6047ZM117.309 23.9325L116.027 27.4567L116.075 27.474L116.123 27.4901L117.309 23.9325ZM115.46 23.5004L114.89 27.2068L114.922 27.2117L114.954 27.216L115.46 23.5004ZM113.612 23.5724L114.347 27.2496L114.414 27.2362L114.48 27.2204L113.612 23.5724ZM112.772 23.9085L110.692 20.7883V20.7883L112.772 23.9085ZM112.388 24.5807L108.643 24.3727L108.638 24.4766V24.5807H112.388ZM112.556 24.8927L110.376 27.9442L110.615 28.1153L110.879 28.2469L112.556 24.8927ZM112.988 25.0608L111.91 28.6526L112.111 28.7128L112.317 28.7503L112.988 25.0608ZM113.516 25.1568L112.845 28.8463L113.01 28.8763L113.176 28.8914L113.516 25.1568ZM113.948 25.2048L114.708 21.5326L114.594 21.509L114.478 21.4925L113.948 25.2048ZM115.028 25.4449L114.119 29.0829L114.144 29.0892L114.169 29.0952L115.028 25.4449ZM115.436 25.5409L114.577 29.1912L114.614 29.1998L114.651 29.2077L115.436 25.5409ZM116.733 25.949L115.189 29.3666C115.577 29.5419 115.983 29.7474 116.407 29.9856L118.245 26.7172L120.083 23.4488C119.483 23.1109 118.88 22.8042 118.276 22.5314L116.733 25.949ZM118.245 26.7172L116.449 30.0093C116.67 30.1297 116.853 30.2679 117.01 30.4251L119.661 27.7735L122.313 25.1218C121.638 24.4468 120.876 23.8808 120.041 23.4251L118.245 26.7172ZM119.661 27.7735L117.06 30.4747C117.127 30.5389 117.217 30.648 117.31 30.8515L120.718 29.2858L124.125 27.7202C123.675 26.7394 123.06 25.8402 122.263 25.0723L119.661 27.7735ZM120.718 29.2858L117.364 30.9629C117.364 30.9637 117.381 30.9987 117.401 31.0835C117.421 31.1699 117.443 31.3052 117.451 31.5002L121.198 31.3503L124.945 31.2005C124.897 29.9947 124.648 28.7612 124.072 27.6088L120.718 29.2858ZM121.198 31.3503L117.451 31.5087C117.478 32.14 117.371 32.5273 117.255 32.7724L120.646 34.3751L124.036 35.9778C124.752 34.4625 125.014 32.8333 124.944 31.192L121.198 31.3503ZM120.646 34.3751L117.267 32.7483C117.103 33.0895 116.874 33.38 116.542 33.6435L118.869 36.5836L121.197 39.5238C122.4 38.571 123.356 37.3891 124.024 36.0019L120.646 34.3751ZM118.869 36.5836L116.55 33.6371C116.202 33.9109 115.714 34.1816 115.019 34.4025L116.156 37.976L117.293 41.5495C118.712 41.0982 120.032 40.4407 121.189 39.5302L118.869 36.5836ZM116.156 37.976L115.069 34.3872C114.347 34.6058 113.53 34.7443 112.6 34.781L112.748 38.5281L112.896 42.2752C114.398 42.2159 115.853 41.9863 117.244 41.5648L116.156 37.976ZM112.748 38.5281L112.641 34.7797C112.297 34.7895 111.925 34.7704 111.521 34.7159L111.019 38.4321L110.517 42.1483C111.298 42.2538 112.078 42.2988 112.855 42.2766L112.748 38.5281ZM111.019 38.4321L111.422 34.7038C111 34.6582 110.585 34.5843 110.176 34.482L109.267 38.12L108.357 41.7581C109.1 41.9439 109.854 42.078 110.616 42.1604L111.019 38.4321ZM109.267 38.12L110.176 34.482C109.711 34.3657 109.264 34.2314 108.834 34.0797L107.586 37.6159L106.338 41.1521C106.997 41.3845 107.67 41.5863 108.357 41.7581L109.267 38.12ZM107.586 37.6159L108.926 34.1132C108.457 33.934 108.027 33.7524 107.636 33.5696L106.05 36.9677L104.464 40.3659C105.033 40.6312 105.628 40.8818 106.247 41.1186L107.586 37.6159ZM106.05 36.9677L109.584 38.2227L111.408 33.0854L107.874 31.8305L104.341 30.5755L102.516 35.7128L106.05 36.9677ZM107.874 31.8305L106.482 35.3123C106.623 35.3689 106.834 35.4611 107.126 35.6003L108.739 32.2146L110.351 28.8288C109.971 28.648 109.606 28.4841 109.267 28.3487L107.874 31.8305ZM108.739 32.2146L107.261 35.6614C107.703 35.8504 108.161 36.0228 108.633 36.1802L109.819 32.6227L111.005 29.0651C110.709 28.9665 110.447 28.8668 110.216 28.7678L108.739 32.2146ZM109.819 32.6227L108.633 36.1802C109.136 36.3478 109.65 36.4914 110.176 36.6127L111.019 32.9587L111.862 29.3048C111.556 29.234 111.27 29.1536 111.005 29.0651L109.819 32.6227ZM111.019 32.9587L110.176 36.6127C110.896 36.7789 111.638 36.856 112.393 36.8258L112.244 33.0788L112.094 29.3318C112.049 29.3336 111.975 29.3307 111.862 29.3048L111.019 32.9587ZM112.244 33.0788L112.446 36.8233C113.339 36.775 114.31 36.6093 115.242 36.1991L113.732 32.7667L112.222 29.3343C112.294 29.3025 112.323 29.2997 112.29 29.3066C112.257 29.3135 112.178 29.3269 112.041 29.3342L112.244 33.0788ZM113.732 32.7667L115.193 36.2203C115.893 35.924 116.7 35.402 117.301 34.5121C117.918 33.5985 118.113 32.6029 118.079 31.7344L114.332 31.8785L110.585 32.0226C110.567 31.5701 110.67 30.9307 111.087 30.3131C111.488 29.7193 111.987 29.4333 112.271 29.3131L113.732 32.7667ZM114.332 31.8785L118.076 31.6583C117.971 29.8882 116.906 28.6026 115.655 27.9401L113.9 31.2543L112.145 34.5685C111.864 34.4196 111.465 34.1387 111.129 33.6529C110.779 33.1479 110.618 32.5943 110.589 32.0987L114.332 31.8785ZM113.9 31.2543L115.738 27.9859C115.289 27.733 114.809 27.5175 114.33 27.3301L112.964 30.8222L111.597 34.3144C111.854 34.415 111.999 34.4876 112.061 34.5227L113.9 31.2543ZM112.964 30.8222L113.93 27.1988C113.711 27.1406 113.408 27.0572 113.015 26.947L112.003 30.5581L110.992 34.1693C111.399 34.2831 111.736 34.3758 111.997 34.4456L112.964 30.8222ZM112.003 30.5581L113.053 26.9581C112.842 26.8965 112.57 26.8 112.232 26.6552L110.755 30.102L109.278 33.5488C109.836 33.7882 110.397 33.9958 110.953 34.1581L112.003 30.5581ZM110.755 30.102L112.232 26.6552C111.942 26.5309 111.626 26.3716 111.283 26.1707L109.387 29.4059L107.49 32.641C108.076 32.9843 108.672 33.2891 109.278 33.5488L110.755 30.102ZM109.387 29.4059L111.333 26.2004C111.15 26.0896 110.97 25.9496 110.79 25.77L108.138 28.4216L105.487 31.0733C106.075 31.6618 106.727 32.178 107.441 32.6113L109.387 29.4059ZM108.138 28.4216L110.846 25.827C110.739 25.7155 110.634 25.5733 110.535 25.3814L107.202 27.1013L103.87 28.8212C104.283 29.6215 104.802 30.3595 105.431 31.0163L108.138 28.4216ZM107.202 27.1013L110.598 25.5097C110.611 25.5372 110.572 25.477 110.567 25.2574L106.818 25.3489L103.069 25.4403C103.096 26.533 103.314 27.6411 103.807 28.6929L107.202 27.1013ZM106.818 25.3489L110.567 25.2418C110.549 24.6197 110.658 24.2388 110.773 23.9989L107.394 22.3721L104.016 20.7453C103.299 22.2338 103.023 23.8374 103.07 25.456L106.818 25.3489ZM107.394 22.3721L110.785 23.9748C110.979 23.5636 111.222 23.2549 111.518 23.0047L109.099 20.1396L106.679 17.2744C105.535 18.2406 104.642 19.4201 104.004 20.7694L107.394 22.3721ZM109.099 20.1396L111.555 22.9734C111.88 22.6911 112.282 22.4551 112.805 22.2808L111.619 18.7232L110.434 15.1656C109.036 15.6315 107.757 16.3397 106.643 17.3057L109.099 20.1396ZM111.619 18.7232L112.858 22.2627C113.449 22.0559 114.109 21.9264 114.857 21.8934L114.692 18.1471L114.527 14.4007C113.098 14.4637 111.71 14.7184 110.381 15.1837L111.619 18.7232ZM114.692 18.1471L114.87 21.8928C115.621 21.8571 116.361 21.8987 117.096 22.0173L117.693 18.3151L118.29 14.6129C117.04 14.4114 115.78 14.341 114.514 14.4013L114.692 18.1471ZM117.693 18.3151L117.154 22.0262C117.868 22.1298 118.5 22.3028 119.063 22.5321L120.478 19.0593L121.892 15.5864C120.727 15.1116 119.502 14.7885 118.232 14.604L117.693 18.3151ZM120.478 19.0593L116.844 18.1313L115.428 23.6767L119.061 24.6047L122.695 25.5327L124.111 19.9873L120.478 19.0593ZM119.061 24.6047L120.528 21.1534C119.817 20.8514 119.138 20.5893 118.495 20.3749L117.309 23.9325L116.123 27.4901C116.536 27.6278 117.025 27.8138 117.594 28.0559L119.061 24.6047ZM117.309 23.9325L118.59 20.4083C117.756 20.1048 116.87 19.9079 115.967 19.7848L115.46 23.5004L114.954 27.216C115.459 27.285 115.805 27.3761 116.027 27.4567L117.309 23.9325ZM115.46 23.5004L116.031 19.794C115.55 19.7201 115.054 19.7024 114.62 19.7024V23.4524V27.2024C114.742 27.2024 114.827 27.2052 114.88 27.2083C114.938 27.2115 114.936 27.2138 114.89 27.2068L115.46 23.5004ZM114.62 23.4524V19.7024C113.983 19.7024 113.356 19.7785 112.743 19.9244L113.612 23.5724L114.48 27.2204C114.54 27.2063 114.585 27.2024 114.62 27.2024V23.4524ZM113.612 23.5724L112.876 19.8952C112.139 20.0427 111.389 20.3232 110.692 20.7883L112.772 23.9085L114.852 27.0287C114.634 27.1738 114.445 27.2301 114.347 27.2496L113.612 23.5724ZM112.772 23.9085L110.692 20.7883C109.469 21.6031 108.725 22.9061 108.643 24.3727L112.388 24.5807L116.132 24.7887C116.111 25.1566 116.009 25.6066 115.751 26.0571C115.494 26.5076 115.158 26.8243 114.852 27.0287L112.772 23.9085ZM112.388 24.5807H108.638C108.638 26.0228 109.365 27.2224 110.376 27.9442L112.556 24.8927L114.735 21.8412C115.069 22.0795 115.446 22.447 115.731 22.9768C116.022 23.5163 116.138 24.0773 116.138 24.5807H112.388ZM112.556 24.8927L110.879 28.2469C111.228 28.4216 111.577 28.5527 111.91 28.6526L112.988 25.0608L114.065 21.4689C114.078 21.4728 114.139 21.492 114.233 21.5386L112.556 24.8927ZM112.988 25.0608L112.317 28.7503C112.493 28.7823 112.669 28.8143 112.845 28.8463L113.516 25.1568L114.187 21.4673C114.011 21.4353 113.835 21.4033 113.659 21.3713L112.988 25.0608ZM113.516 25.1568L113.176 28.8914C113.32 28.9044 113.394 28.9137 113.418 28.9171L113.948 25.2048L114.478 21.4925C114.278 21.4639 114.064 21.4412 113.855 21.4222L113.516 25.1568ZM113.948 25.2048L113.188 28.877C113.635 28.9694 113.937 29.0374 114.119 29.0829L115.028 25.4449L115.938 21.8068C115.608 21.7243 115.189 21.6322 114.708 21.5326L113.948 25.2048ZM115.028 25.4449L114.169 29.0952C114.19 29.1001 114.248 29.1138 114.265 29.1177C114.279 29.121 114.338 29.1349 114.348 29.1372C114.397 29.1487 114.443 29.1597 114.475 29.1672C114.493 29.1713 114.483 29.169 114.499 29.1728C114.526 29.1792 114.494 29.1716 114.52 29.1777C114.535 29.1812 114.524 29.1786 114.538 29.1818C114.544 29.1834 114.546 29.1839 114.552 29.1852C114.553 29.1855 114.554 29.1857 114.555 29.1859C114.57 29.1894 114.542 29.1828 114.556 29.1863C114.561 29.1874 114.553 29.1854 114.557 29.1865C114.561 29.1874 114.554 29.1857 114.558 29.1866C114.559 29.1868 114.56 29.1871 114.561 29.1873C114.562 29.1877 114.561 29.1874 114.563 29.1878C114.567 29.1888 114.564 29.1879 114.567 29.1889C114.569 29.1892 114.57 29.1895 114.571 29.1897C114.572 29.19 114.576 29.1908 114.576 29.1908C114.576 29.1909 114.577 29.1911 114.577 29.1911C114.577 29.1912 114.577 29.1912 114.577 29.1912C114.578 29.1913 114.577 29.1911 114.577 29.1912C114.577 29.1912 114.577 29.1912 114.577 29.1912C114.577 29.1912 114.577 29.1912 114.577 29.1912C114.577 29.1912 114.577 29.1912 114.577 29.1912C114.577 29.1912 114.577 29.1912 114.577 29.1912C114.577 29.1912 114.577 29.1912 115.436 25.5409C116.295 21.8906 116.295 21.8906 116.295 21.8906C116.295 21.8906 116.295 21.8906 116.295 21.8906C116.295 21.8906 116.295 21.8906 116.295 21.8906C116.295 21.8905 116.296 21.8907 116.295 21.8906C116.295 21.8906 116.295 21.8906 116.295 21.8906C116.295 21.8906 116.295 21.8906 116.295 21.8906C116.295 21.8905 116.295 21.8906 116.295 21.8905C116.294 21.8902 116.295 21.8906 116.294 21.8904C116.294 21.8903 116.294 21.8903 116.294 21.8902C116.293 21.8901 116.292 21.8899 116.292 21.8897C116.29 21.8894 116.292 21.8898 116.29 21.8894C116.288 21.8888 116.291 21.8897 116.289 21.8891C116.285 21.8882 116.278 21.8865 116.27 21.8846C116.218 21.8723 116.294 21.8903 116.238 21.8771C116.224 21.8737 116.242 21.8782 116.228 21.8747C116.22 21.8728 116.225 21.8742 116.217 21.8722C116.217 21.8721 116.212 21.871 116.211 21.8709C116.198 21.8678 116.219 21.8726 116.206 21.8695C116.203 21.8688 116.196 21.8673 116.193 21.8666C116.097 21.844 116.179 21.8632 116.066 21.8366C116.051 21.833 115.919 21.8021 115.887 21.7946L115.028 25.4449ZM115.436 25.5409L114.651 29.2077C114.871 29.2548 115.076 29.3201 115.271 29.4026L116.733 25.949L118.194 22.4954C117.557 22.2258 116.898 22.019 116.222 21.8741L115.436 25.5409ZM121.746 24.3886L121.444 20.6508L117.996 20.9291V24.3886H121.746ZM127.099 23.9565L130.848 24.028L130.927 19.8853L126.797 20.2187L127.099 23.9565ZM126.835 37.808L127.152 41.5445L130.52 41.2586L130.584 37.8794L126.835 37.808ZM121.746 38.2401H117.996V42.3219L122.063 41.9766L121.746 38.2401ZM121.722 18.3151L121.558 14.5687L117.991 14.7244L117.972 18.2945L121.722 18.3151ZM127.219 18.075L130.96 18.3301L131.246 14.1456L127.055 14.3286L127.219 18.075ZM126.931 22.3001L127.205 26.04L130.451 25.8018L130.672 22.5552L126.931 22.3001ZM121.698 22.6842L117.948 22.6636L117.925 26.7211L121.972 26.4241L121.698 22.6842ZM121.746 24.3886L122.047 28.1265L127.401 27.6944L127.099 23.9565L126.797 20.2187L121.444 20.6508L121.746 24.3886ZM127.099 23.9565L123.35 23.885L123.086 37.7365L126.835 37.808L130.584 37.8794L130.848 24.028L127.099 23.9565ZM126.835 37.808L126.518 34.0714L121.428 34.5035L121.746 38.2401L122.063 41.9766L127.152 41.5445L126.835 37.808ZM121.746 38.2401H125.496V24.3886H121.746H117.996V38.2401H121.746ZM121.722 18.3151L121.885 22.0615L127.383 21.8215L127.219 18.075L127.055 14.3286L121.558 14.5687L121.722 18.3151ZM127.219 18.075L123.478 17.82L123.19 22.045L126.931 22.3001L130.672 22.5552L130.96 18.3301L127.219 18.075ZM126.931 22.3001L126.656 18.5602L121.423 18.9443L121.698 22.6842L121.972 26.4241L127.205 26.04L126.931 22.3001ZM121.698 22.6842L125.447 22.7048L125.471 18.3357L121.722 18.3151L117.972 18.2945L117.948 22.6636L121.698 22.6842ZM130.404 37.6159L131.62 34.0686L128.641 33.0469L127.12 35.8058L130.404 37.6159ZM132.085 38.096L131.249 41.7517L131.26 41.7543L131.271 41.7567L132.085 38.096ZM134.629 38.2401L135.094 41.9611V41.9611L134.629 38.2401ZM135.325 38.024L133.754 34.6192L133.649 34.6675L133.548 34.7222L135.325 38.024ZM135.83 37.6159L138.862 39.8216L138.907 39.7597L138.95 39.696L135.83 37.6159ZM135.782 36.1275L132.698 38.2621L132.794 38.3997L132.901 38.5282L135.782 36.1275ZM135.157 35.6474L133.48 39.0015L133.603 39.0628L133.73 39.115L135.157 35.6474ZM134.269 35.4074L133.739 39.1197L133.826 39.1321L133.914 39.1405L134.269 35.4074ZM131.965 35.5274L132.906 39.1574L132.968 39.1412L133.03 39.1229L131.965 35.5274ZM130.764 35.9835L127.189 34.8514L124.448 43.5088L132.499 39.3082L130.764 35.9835ZM131.22 34.5431L134.795 35.6752L135.774 32.5836L132.856 31.1688L131.22 34.5431ZM128.748 32.4546L125.593 34.4825L125.615 34.5153L125.636 34.5478L128.748 32.4546ZM128.244 27.1973L124.719 25.9158L124.711 25.9389L124.703 25.9622L128.244 27.1973ZM129.42 25.2768L126.656 22.7429V22.7429L129.42 25.2768ZM131.436 23.8605L132.978 27.2789V27.2789L131.436 23.8605ZM135.878 23.4284L135.195 27.1157V27.1157L135.878 23.4284ZM137.102 23.7405L135.916 27.298L140.099 28.6923L140.804 24.3398L137.102 23.7405ZM137.51 21.2198L138.995 17.7764L134.577 15.8712L133.808 20.6205L137.51 21.2198ZM141.351 22.8762L144.692 24.5794L146.508 21.0165L142.836 19.4328L141.351 22.8762ZM140.103 25.3248L136.762 23.6216L135.503 26.0903L137.493 28.0182L140.103 25.3248ZM141.255 27.0533L137.761 28.4166L137.782 28.4686L137.804 28.5201L141.255 27.0533ZM141.039 31.7104L137.792 29.8344L137.785 29.8461L137.778 29.8579L141.039 31.7104ZM139.238 33.5589L137.173 30.4291L132.038 33.8181L137.403 36.8291L139.238 33.5589ZM141.039 39.8004L137.768 37.9658L137.759 37.9825L137.75 37.9993L141.039 39.8004ZM139.454 41.4809L137.408 38.3384L137.391 38.3494L137.374 38.3607L139.454 41.4809ZM137.006 42.4891L136.154 38.8372L136.118 38.8456L136.082 38.8547L137.006 42.4891ZM130.332 42.4891L129.393 46.1197L130.332 42.4891ZM128.076 41.841L124.791 40.0309L122.618 43.9746L126.89 45.3985L128.076 41.841ZM135.037 30.8702L134.281 27.1973L134.23 27.2079L134.178 27.2199L135.037 30.8702ZM136.262 30.1981L133.347 27.8386V27.8386L136.262 30.1981ZM136.55 29.0698L140.232 28.3616L140.219 28.2938L140.204 28.2266L136.55 29.0698ZM135.806 28.1576L134.129 31.5117L134.156 31.5252L134.183 31.5383L135.806 28.1576ZM134.437 28.0375L133.659 24.3691L133.619 24.3777L133.578 24.3872L134.437 28.0375ZM133.213 28.7337L136.128 31.0932V31.0932L133.213 28.7337ZM132.925 29.838L136.607 29.1298L136.605 29.1162L136.602 29.1025L132.925 29.838ZM133.621 30.7742L131.835 34.0715L131.916 34.1152L131.998 34.1549L133.621 30.7742ZM130.404 37.6159L129.188 41.1632C129.869 41.3968 130.556 41.5934 131.249 41.7517L132.085 38.096L132.92 34.4403C132.493 34.3426 132.059 34.2191 131.62 34.0686L130.404 37.6159ZM132.085 38.096L131.271 41.7567C132.122 41.9459 132.988 42.0381 133.861 42.0381V38.2881V34.5381C133.518 34.5381 133.199 34.5022 132.898 34.4353L132.085 38.096ZM133.861 38.2881V42.0381C134.274 42.0381 134.685 42.0122 135.094 41.9611L134.629 38.2401L134.164 34.519C134.061 34.5319 133.96 34.5381 133.861 34.5381V38.2881ZM134.629 38.2401L135.094 41.9611C135.768 41.8769 136.451 41.6769 137.103 41.3258L135.325 38.024L133.548 34.7222C133.783 34.5952 134.003 34.5392 134.164 34.519L134.629 38.2401ZM135.325 38.024L136.897 41.4289C137.655 41.0791 138.338 40.5431 138.862 39.8216L135.83 37.6159L132.797 35.4103C133.066 35.0408 133.412 34.7769 133.754 34.6192L135.325 38.024ZM135.83 37.6159L138.95 39.696C139.6 38.7202 139.772 37.6849 139.772 36.8717H136.022H132.272C132.272 36.6667 132.315 36.1275 132.709 35.5358L135.83 37.6159ZM136.022 36.8717H139.772C139.772 35.8874 139.498 34.7301 138.662 33.7268L135.782 36.1275L132.901 38.5282C132.385 37.9091 132.272 37.2479 132.272 36.8717H136.022ZM135.782 36.1275L138.865 33.993C138.246 33.0985 137.415 32.5215 136.585 32.1799L135.157 35.6474L133.73 39.115C133.444 38.9974 133.029 38.7404 132.698 38.2621L135.782 36.1275ZM135.157 35.6474L136.834 32.2933C136.098 31.9251 135.34 31.7424 134.625 31.6742L134.269 35.4074L133.914 39.1405C133.87 39.1364 133.705 39.1136 133.48 39.0015L135.157 35.6474ZM134.269 35.4074L134.8 31.695C134.281 31.621 133.76 31.5853 133.237 31.5853V35.3353V39.0853C133.418 39.0853 133.585 39.0977 133.739 39.1197L134.269 35.4074ZM133.237 35.3353V31.5853C132.431 31.5853 131.649 31.7099 130.899 31.9319L131.965 35.5274L133.03 39.1229C133.145 39.0888 133.21 39.0853 133.237 39.0853V35.3353ZM131.965 35.5274L131.023 31.8974C130.337 32.0755 129.668 32.3258 129.03 32.6588L130.764 35.9835L132.499 39.3082C132.597 39.2571 132.728 39.2034 132.906 39.1574L131.965 35.5274ZM130.764 35.9835L134.339 37.1156L134.795 35.6752L131.22 34.5431L127.645 33.411L127.189 34.8514L130.764 35.9835ZM131.22 34.5431L132.856 31.1688C132.331 30.9143 132.043 30.6346 131.859 30.3615L128.748 32.4546L125.636 34.5478C126.637 36.0351 127.997 37.1478 129.584 37.9174L131.22 34.5431ZM128.748 32.4546L131.902 30.4268C131.783 30.2406 131.634 29.8952 131.634 29.2138H127.884H124.134C124.134 31.061 124.561 32.8762 125.593 34.4825L128.748 32.4546ZM127.884 29.2138H131.634C131.634 29.0221 131.668 28.7672 131.784 28.4325L128.244 27.1973L124.703 25.9622C124.34 27.0037 124.134 28.0932 124.134 29.2138H127.884ZM128.244 27.1973L131.768 28.4788C131.848 28.258 131.975 28.0394 132.184 27.8108L129.42 25.2768L126.656 22.7429C125.809 23.6665 125.151 24.7283 124.719 25.9158L128.244 27.1973ZM129.42 25.2768L132.184 27.8108C132.323 27.66 132.558 27.4683 132.978 27.2789L131.436 23.8605L129.895 20.442C128.682 20.9888 127.574 21.7414 126.656 22.7429L129.42 25.2768ZM131.436 23.8605L132.978 27.2789C133.198 27.1798 133.622 27.0583 134.365 27.0583V23.3083V19.5583C132.835 19.5583 131.307 19.805 129.895 20.442L131.436 23.8605ZM134.365 23.3083V27.0583C134.779 27.0583 135.045 27.0879 135.195 27.1157L135.878 23.4284L136.56 19.7411C135.846 19.6088 135.104 19.5583 134.365 19.5583V23.3083ZM135.878 23.4284L135.195 27.1157C135.471 27.1668 135.71 27.2292 135.916 27.298L137.102 23.7405L138.288 20.1829C137.726 19.9956 137.149 19.85 136.56 19.7411L135.878 23.4284ZM137.102 23.7405L140.804 24.3398L141.212 21.8192L137.51 21.2198L133.808 20.6205L133.4 23.1411L137.102 23.7405ZM137.51 21.2198L136.025 24.6633L139.866 26.3197L141.351 22.8762L142.836 19.4328L138.995 17.7764L137.51 21.2198ZM141.351 22.8762L138.01 21.173L136.762 23.6216L140.103 25.3248L143.444 27.0281L144.692 24.5794L141.351 22.8762ZM140.103 25.3248L137.493 28.0182C137.624 28.1444 137.704 28.2685 137.761 28.4166L141.255 27.0533L144.748 25.69C144.294 24.5258 143.606 23.4975 142.712 22.6314L140.103 25.3248ZM141.255 27.0533L137.804 28.5201C137.867 28.6696 137.913 28.8557 137.913 29.1178H141.663H145.413C145.413 27.9075 145.187 26.7173 144.706 25.5865L141.255 27.0533ZM141.663 29.1178H137.913C137.913 29.6069 137.815 29.7943 137.792 29.8344L141.039 31.7104L144.286 33.5865C145.095 32.1863 145.413 30.6452 145.413 29.1178H141.663ZM141.039 31.7104L137.778 29.8579C137.719 29.9617 137.57 30.167 137.173 30.4291L139.238 33.5589L141.304 36.6887C142.507 35.8945 143.558 34.8675 144.299 33.563L141.039 31.7104ZM139.238 33.5589L137.403 36.8291C137.707 36.9998 137.77 37.1156 137.774 37.1217C137.776 37.1255 137.841 37.223 137.841 37.5439H141.591H145.341C145.341 36.0883 145.014 34.6334 144.232 33.3089C143.452 31.9867 142.338 30.9982 141.074 30.2887L139.238 33.5589ZM141.591 37.5439H137.841C137.841 37.8328 137.784 37.9384 137.768 37.9658L141.039 39.8004L144.309 41.6351C145.03 40.3502 145.341 38.9513 145.341 37.5439H141.591ZM141.039 39.8004L137.75 37.9993C137.7 38.09 137.616 38.2031 137.408 38.3384L139.454 41.4809L141.501 44.6234C142.669 43.8624 143.641 42.8552 144.328 41.6016L141.039 39.8004ZM139.454 41.4809L137.374 38.3607C137.149 38.5111 136.77 38.6935 136.154 38.8372L137.006 42.4891L137.858 46.141C139.163 45.8366 140.416 45.3468 141.535 44.6011L139.454 41.4809ZM137.006 42.4891L136.082 38.8547C135.492 39.0046 134.753 39.0992 133.837 39.0992V42.8492V46.5992C135.257 46.5992 136.631 46.4538 137.93 46.1235L137.006 42.4891ZM133.837 42.8492V39.0992C132.612 39.0992 131.786 38.9917 131.271 38.8586L130.332 42.4891L129.393 46.1197C130.735 46.4666 132.245 46.5992 133.837 46.5992V42.8492ZM130.332 42.4891L131.271 38.8586C130.384 38.6293 129.724 38.4375 129.261 38.2834L128.076 41.841L126.89 45.3985C127.58 45.6285 128.423 45.8689 129.393 46.1197L130.332 42.4891ZM128.076 41.841L131.36 43.651L133.688 39.426L130.404 37.6159L127.12 35.8058L124.791 40.0309L128.076 41.841ZM135.037 30.8702L135.794 34.5432C136.941 34.3069 138.219 33.7404 139.176 32.5576L136.262 30.1981L133.347 27.8386C133.76 27.3279 134.222 27.2095 134.281 27.1973L135.037 30.8702ZM136.262 30.1981L139.176 32.5576C140.128 31.3824 140.526 29.8888 140.232 28.3616L136.55 29.0698L132.867 29.778C132.813 29.4941 132.804 29.1308 132.904 28.7362C133.004 28.3439 133.182 28.0423 133.347 27.8386L136.262 30.1981ZM136.55 29.0698L140.204 28.2266C139.84 26.6503 138.809 25.4397 137.428 24.7768L135.806 28.1576L134.183 31.5383C133.951 31.4272 133.653 31.2277 133.386 30.9001C133.116 30.5688 132.965 30.2144 132.896 29.913L136.55 29.0698ZM135.806 28.1576L137.483 24.8034C136.161 24.1429 134.8 24.1272 133.659 24.3691L134.437 28.0375L135.215 31.7059C135.131 31.7238 134.681 31.7881 134.129 31.5117L135.806 28.1576ZM134.437 28.0375L133.578 24.3872C132.464 24.6495 131.229 25.224 130.298 26.3742L133.213 28.7337L136.128 31.0932C135.741 31.5712 135.323 31.6816 135.296 31.6878L134.437 28.0375ZM133.213 28.7337L130.298 26.3742C129.372 27.5179 128.934 29.0069 129.248 30.5734L132.925 29.838L136.602 29.1025C136.665 29.4183 136.671 29.8034 136.565 30.2084C136.461 30.6069 136.281 30.9031 136.128 31.0932L133.213 28.7337ZM132.925 29.838L129.242 30.5462C129.542 32.1047 130.498 33.3474 131.835 34.0715L133.621 30.7742L135.407 27.4769C135.636 27.6006 135.92 27.8133 136.168 28.1465C136.418 28.4826 136.551 28.8343 136.607 29.1298L132.925 29.838ZM133.621 30.7742L131.998 34.1549C133.353 34.8052 134.739 34.7927 135.896 34.5205L135.037 30.8702L134.178 27.2199C134.247 27.2038 134.689 27.1273 135.244 27.3935L133.621 30.7742ZM147.972 25.6609H144.222V29.4109H147.972V25.6609ZM148.068 25.6609V29.4109H149.968L151.092 27.8785L148.068 25.6609ZM149.676 24.1966L148.117 20.786L148.098 20.7947L148.079 20.8035L149.676 24.1966ZM155.366 26.6932L151.779 27.789L151.793 27.8342L151.808 27.879L155.366 26.6932ZM155.654 37.856L155.965 41.593L159.404 41.3065V37.856H155.654ZM150.468 38.2881L146.718 38.2572L146.685 42.3664L150.78 42.0251L150.468 38.2881ZM150.54 29.5499L146.796 29.3419L146.791 29.4304L146.79 29.519L150.54 29.5499ZM150.204 28.8297L147.764 31.6769L147.812 31.7183L147.862 31.758L150.204 28.8297ZM148.548 28.8297L150.765 31.8537L150.782 31.8418L150.798 31.8297L148.548 28.8297ZM148.188 29.5739H144.438V29.5947L144.438 29.6155L148.188 29.5739ZM148.284 38.2401L148.02 41.9808L152.079 42.2666L152.034 38.1985L148.284 38.2401ZM143.171 37.88L139.421 37.9327L139.469 41.3786L142.907 41.6207L143.171 37.88ZM142.978 24.2206L142.673 20.483L139.18 20.7686L139.229 24.2733L142.978 24.2206ZM147.972 23.8125H151.722V19.7435L147.666 20.0749L147.972 23.8125ZM147.972 25.6609V29.4109H148.068V25.6609V21.9109H147.972V25.6609ZM148.068 25.6609L151.092 27.8785C151.241 27.6754 151.344 27.5703 151.391 27.5276C151.437 27.4854 151.4 27.5296 151.273 27.5896L149.676 24.1966L148.079 20.8035C146.76 21.4244 145.776 22.4448 145.044 23.4433L148.068 25.6609ZM149.676 24.1966L151.235 27.6071C151.274 27.5892 151.347 27.5625 151.501 27.5625V23.8125V20.0625C150.342 20.0625 149.198 20.2918 148.117 20.786L149.676 24.1966ZM151.501 23.8125V27.5625C151.614 27.5625 151.679 27.5726 151.704 27.5777C151.727 27.5825 151.717 27.5829 151.685 27.568L153.277 24.1726L154.869 20.7771C153.773 20.2636 152.62 20.0625 151.501 20.0625V23.8125ZM153.277 24.1726L151.685 27.568C151.692 27.5712 151.694 27.5727 151.693 27.5718C151.691 27.5708 151.688 27.5685 151.683 27.5647C151.678 27.561 151.674 27.5571 151.67 27.5536C151.667 27.5501 151.665 27.5484 151.666 27.5496L154.573 25.1808L157.48 22.812C156.767 21.9366 155.883 21.2526 154.869 20.7771L153.277 24.1726ZM154.573 25.1808L151.666 27.5496C151.688 27.5758 151.733 27.6393 151.779 27.789L155.366 26.6932L158.952 25.5974C158.646 24.5948 158.163 23.65 157.48 22.812L154.573 25.1808ZM155.366 26.6932L151.808 27.879C151.86 28.0343 151.904 28.2538 151.904 28.5657H155.654H159.404C159.404 27.5331 159.255 26.5044 158.923 25.5073L155.366 26.6932ZM155.654 28.5657H151.904V37.856H155.654H159.404V28.5657H155.654ZM155.654 37.856L155.342 34.1189L150.157 34.551L150.468 38.2881L150.78 42.0251L155.965 41.593L155.654 37.856ZM150.468 38.2881L154.218 38.319L154.29 29.5808L150.54 29.5499L146.79 29.519L146.718 38.2572L150.468 38.2881ZM150.54 29.5499L154.285 29.7579C154.373 28.169 153.661 26.7925 152.547 25.9015L150.204 28.8297L147.862 31.758C147.603 31.5514 147.294 31.2201 147.07 30.7396C146.842 30.2504 146.773 29.7589 146.796 29.3419L150.54 29.5499ZM150.204 28.8297L152.645 25.9825C151.681 25.1568 150.522 24.7916 149.388 24.7916V28.5416V32.2916C149.169 32.2916 148.89 32.258 148.584 32.1499C148.273 32.0403 147.995 31.8752 147.764 31.6769L150.204 28.8297ZM149.388 28.5416V24.7916C148.228 24.7916 147.167 25.1782 146.298 25.8297L148.548 28.8297L150.798 31.8297C150.637 31.95 150.426 32.0718 150.166 32.161C149.904 32.2508 149.638 32.2916 149.388 32.2916V28.5416ZM148.548 28.8297L146.33 25.8057C145.045 26.7479 144.438 28.1641 144.438 29.5739H148.188H151.938C151.938 29.8885 151.877 30.3198 151.653 30.7812C151.426 31.2519 151.099 31.6095 150.765 31.8537L148.548 28.8297ZM148.188 29.5739L144.438 29.6155L144.534 38.2816L148.284 38.2401L152.034 38.1985L151.938 29.5324L148.188 29.5739ZM148.284 38.2401L148.547 34.4993L143.434 34.1392L143.171 37.88L142.907 41.6207L148.02 41.9808L148.284 38.2401ZM143.171 37.88L146.92 37.8273L146.728 24.1679L142.978 24.2206L139.229 24.2733L139.421 37.9327L143.171 37.88ZM142.978 24.2206L143.284 27.9581L148.277 27.55L147.972 23.8125L147.666 20.0749L142.673 20.483L142.978 24.2206ZM147.972 23.8125H144.222V25.6609H147.972H151.722V23.8125H147.972ZM179.574 35.8875H183.324V32.1375H179.574V35.8875ZM179.526 35.8875V32.1375H176.899L176.002 34.6059L179.526 35.8875ZM178.014 37.7599L176.245 34.4532L176.229 34.462L176.212 34.4708L178.014 37.7599ZM172.708 37.2558L170.086 39.9364L170.115 39.9652L170.145 39.9934L172.708 37.2558ZM171.604 24.0525L171.302 20.3147L167.854 20.593V24.0525H171.604ZM176.957 23.6204L180.707 23.6812L180.774 19.5502L176.656 19.8826L176.957 23.6204ZM176.813 32.5026L180.56 32.6587L180.562 32.6111L180.563 32.5634L176.813 32.5026ZM177.053 33.3428L174.402 35.9945L174.522 36.1148L174.653 36.2237L177.053 33.3428ZM178.686 33.3428L176.399 30.3705L176.341 30.4151L176.285 30.462L178.686 33.3428ZM178.974 32.5266L175.224 32.5904L175.225 32.6366L175.227 32.6828L178.974 32.5266ZM178.83 24.0525L178.537 20.314L175.02 20.5892L175.08 24.1163L178.83 24.0525ZM184.351 23.6204L188.1 23.7149L188.205 19.5574L184.059 19.8819L184.351 23.6204ZM183.991 37.904L184.154 41.6504L187.652 41.4984L187.74 37.9985L183.991 37.904ZM179.574 38.096H175.824V42.0126L179.737 41.8425L179.574 38.096ZM179.574 35.8875V32.1375H179.526V35.8875V39.6375H179.574V35.8875ZM179.526 35.8875L176.002 34.6059C175.96 34.7205 175.943 34.7185 175.99 34.6595C176.014 34.6301 176.049 34.5926 176.096 34.5534C176.144 34.5141 176.194 34.4802 176.245 34.4532L178.014 37.7599L179.782 41.0666C181.442 40.179 182.481 38.7345 183.05 37.169L179.526 35.8875ZM178.014 37.7599L176.212 34.4708C176.189 34.4838 176.039 34.5621 175.637 34.5621V38.3121V42.0621C177.059 42.0621 178.494 41.7722 179.815 41.049L178.014 37.7599ZM175.637 38.3121V34.5621C175.404 34.5621 175.298 34.5282 175.277 34.5204C175.265 34.5162 175.264 34.5149 175.27 34.5181C175.275 34.5214 175.276 34.523 175.271 34.5182L172.708 37.2558L170.145 39.9934C171.706 41.4544 173.653 42.0621 175.637 42.0621V38.3121ZM172.708 37.2558L175.331 34.5752C175.36 34.6037 175.384 34.6349 175.402 34.663C175.419 34.6902 175.421 34.701 175.415 34.6846C175.402 34.6473 175.354 34.4846 175.354 34.135H171.604H167.854C167.854 36.1675 168.419 38.3057 170.086 39.9364L172.708 37.2558ZM171.604 34.135H175.354V24.0525H171.604H167.854V34.135H171.604ZM171.604 24.0525L171.906 27.7904L177.259 27.3583L176.957 23.6204L176.656 19.8826L171.302 20.3147L171.604 24.0525ZM176.957 23.6204L173.208 23.5596L173.064 32.4418L176.813 32.5026L180.563 32.5634L180.707 23.6812L176.957 23.6204ZM176.813 32.5026L173.066 32.3465C173.03 33.2143 173.162 34.7546 174.402 35.9945L177.053 33.3428L179.705 30.6912C180.593 31.579 180.564 32.5591 180.56 32.6587L176.813 32.5026ZM177.053 33.3428L174.653 36.2237C175.798 37.1778 177.105 37.3329 177.917 37.3329V33.5829V29.8329C177.962 29.8329 178.693 29.828 179.454 30.462L177.053 33.3428ZM177.917 33.5829V37.3329C178.864 37.3329 180.05 37.0874 181.086 36.2237L178.686 33.3428L176.285 30.462C176.937 29.9184 177.611 29.8329 177.917 29.8329V33.5829ZM178.686 33.3428L180.972 36.3152C182.54 35.1091 182.762 33.3739 182.72 32.3705L178.974 32.5266L175.227 32.6828C175.217 32.4476 175.247 31.2565 176.399 30.3705L178.686 33.3428ZM178.974 32.5266L182.723 32.4629L182.579 23.9888L178.83 24.0525L175.08 24.1163L175.224 32.5904L178.974 32.5266ZM178.83 24.0525L179.122 27.7911L184.644 27.359L184.351 23.6204L184.059 19.8819L178.537 20.314L178.83 24.0525ZM184.351 23.6204L180.602 23.5259L180.242 37.8095L183.991 37.904L187.74 37.9985L188.1 23.7149L184.351 23.6204ZM183.991 37.904L183.828 34.1575L179.411 34.3496L179.574 38.096L179.737 41.8425L184.154 41.6504L183.991 37.904ZM179.574 38.096H183.324V35.8875H179.574H175.824V38.096H179.574ZM190.804 23.6444H194.554V19.5542L190.479 19.9085L190.804 23.6444ZM190.804 25.2768H187.054V34.9358L193.572 27.8072L190.804 25.2768ZM192.389 24.0525L193.985 27.4456L194.006 27.4358L194.027 27.4257L192.389 24.0525ZM196.998 24.2926L195.188 27.577L195.228 27.5988L195.268 27.6197L196.998 24.2926ZM199.014 25.949L196.073 28.2749L196.089 28.2957L196.106 28.3163L199.014 25.949ZM200.311 28.3016L196.766 29.526L196.77 29.5361L196.773 29.5462L200.311 28.3016ZM200.287 33.7269L203.811 35.0085L203.815 34.9983L203.818 34.9882L200.287 33.7269ZM198.918 36.0795L196.076 33.6336L196.059 33.6528L196.043 33.6723L198.918 36.0795ZM196.83 37.7359L195.127 34.395V34.395L196.83 37.7359ZM192.533 38.144L191.599 41.7759L191.611 41.779L191.623 41.7821L192.533 38.144ZM191.02 37.2798L193.623 34.5804L186.995 28.1883L187.272 37.3928L191.02 37.2798ZM191.164 42.057L191.483 45.7934L195.02 45.4917L194.913 41.944L191.164 42.057ZM186.099 42.4891L182.35 42.5429L182.407 46.5677L186.418 46.2255L186.099 42.4891ZM185.835 24.0765L185.51 20.3406L182.035 20.6428L182.085 24.1303L185.835 24.0765ZM194.069 32.9347L192.483 29.5366L192.467 29.5441L192.451 29.5517L194.069 32.9347ZM195.51 31.5184L192.053 30.0632L192.037 30.1022L192.021 30.1415L195.51 31.5184ZM195.51 29.814L192.116 31.4107L192.126 31.4304L192.135 31.45L195.51 29.814ZM194.189 28.7337L193.06 32.3096L193.115 32.3271L193.171 32.3429L194.189 28.7337ZM192.197 28.9497L190.611 25.5516L190.595 25.5591L190.579 25.5667L192.197 28.9497ZM190.708 30.3901L194.15 31.8785L194.157 31.862L194.164 31.8453L190.708 30.3901ZM190.732 32.0945L194.125 30.4978L194.106 30.4574L194.086 30.4175L190.732 32.0945ZM191.26 32.7907L188.82 35.6379L188.881 35.69L188.944 35.7394L191.26 32.7907ZM192.029 33.1748L191.025 36.788L191.05 36.7948L191.074 36.8013L192.029 33.1748ZM192.989 33.2468L192.649 29.5122L192.641 29.5129L192.633 29.5137L192.989 33.2468ZM190.804 23.6444H187.054V25.2768H190.804H194.554V23.6444H190.804ZM190.804 25.2768L193.572 27.8072C193.837 27.5172 193.984 27.4465 193.985 27.4456L192.389 24.0525L190.792 20.6595C189.706 21.1707 188.796 21.9162 188.037 22.7464L190.804 25.2768ZM192.389 24.0525L194.027 27.4257C193.972 27.4527 194.051 27.3944 194.381 27.3944V23.6444V19.8944C193.175 19.8944 191.926 20.1082 190.75 20.6794L192.389 24.0525ZM194.381 23.6444V27.3944C194.756 27.3944 194.998 27.4723 195.188 27.577L196.998 24.2926L198.808 21.0082C197.429 20.2486 195.927 19.8944 194.381 19.8944V23.6444ZM196.998 24.2926L195.268 27.6197C195.612 27.7984 195.867 28.0141 196.073 28.2749L199.014 25.949L201.956 23.6231C201.074 22.5076 199.985 21.619 198.728 20.9655L196.998 24.2926ZM199.014 25.949L196.106 28.3163C196.375 28.6471 196.598 29.0403 196.766 29.526L200.311 28.3016L203.855 27.0771C203.415 25.8024 202.774 24.6273 201.923 23.5817L199.014 25.949ZM200.311 28.3016L196.773 29.5462C196.94 30.0196 197.017 30.4794 197.017 30.9422H200.767H204.517C204.517 29.6126 204.29 28.312 203.848 27.0569L200.311 28.3016ZM200.767 30.9422H197.017C197.017 31.4766 196.929 31.9779 196.755 32.4657L200.287 33.7269L203.818 34.9882C204.284 33.6835 204.517 32.3284 204.517 30.9422H200.767ZM200.287 33.7269L196.762 32.4454C196.592 32.9132 196.363 33.3001 196.076 33.6336L198.918 36.0795L201.761 38.5254C202.658 37.4826 203.341 36.3011 203.811 35.0085L200.287 33.7269ZM198.918 36.0795L196.043 33.6723C195.798 33.9654 195.503 34.2032 195.127 34.395L196.83 37.7359L198.533 41.0768C199.789 40.4364 200.887 39.57 201.794 38.4868L198.918 36.0795ZM196.83 37.7359L195.127 34.395C194.872 34.5247 194.565 34.6101 194.141 34.6101V38.3601V42.1101C195.67 42.1101 197.155 41.7794 198.533 41.0768L196.83 37.7359ZM194.141 38.3601V34.6101C194.005 34.6101 193.777 34.5898 193.442 34.506L192.533 38.144L191.623 41.7821C192.44 41.9864 193.285 42.1101 194.141 42.1101V38.3601ZM192.533 38.144L193.467 34.5122C193.512 34.5239 193.558 34.5426 193.595 34.564C193.631 34.5847 193.64 34.5964 193.623 34.5804L191.02 37.2798L188.417 39.9792C189.295 40.8257 190.364 41.4582 191.599 41.7759L192.533 38.144ZM191.02 37.2798L187.272 37.3928L187.416 42.17L191.164 42.057L194.913 41.944L194.769 37.1668L191.02 37.2798ZM191.164 42.057L190.846 38.3206L185.78 38.7527L186.099 42.4891L186.418 46.2255L191.483 45.7934L191.164 42.057ZM186.099 42.4891L189.849 42.4353L189.585 24.0228L185.835 24.0765L182.085 24.1303L182.35 42.5429L186.099 42.4891ZM185.835 24.0765L186.16 27.8124L191.129 27.3803L190.804 23.6444L190.479 19.9085L185.51 20.3406L185.835 24.0765ZM194.069 32.9347L195.655 36.3329C197.046 35.6836 198.333 34.5801 198.998 32.8953L195.51 31.5184L192.021 30.1415C192.1 29.9433 192.218 29.775 192.34 29.6548C192.453 29.5433 192.525 29.5171 192.483 29.5366L194.069 32.9347ZM195.51 31.5184L198.966 32.9736C199.582 31.509 199.672 29.8036 198.884 28.1779L195.51 29.814L192.135 31.45C192.024 31.2215 191.952 30.9378 191.952 30.6362C191.952 30.3464 192.018 30.1462 192.053 30.0632L195.51 31.5184ZM195.51 29.814L198.903 28.2172C198.144 26.6059 196.785 25.5694 195.207 25.1245L194.189 28.7337L193.171 32.3429C193.057 32.3106 192.844 32.2272 192.613 32.0381C192.376 31.844 192.212 31.6145 192.116 31.4107L195.51 29.814ZM194.189 28.7337L195.318 25.1578C193.609 24.6179 191.963 24.9204 190.611 25.5516L192.197 28.9497L193.783 32.3479C193.838 32.3219 193.786 32.3559 193.639 32.3718C193.48 32.3891 193.274 32.3774 193.06 32.3096L194.189 28.7337ZM192.197 28.9497L190.579 25.5667C189.219 26.2172 187.943 27.2933 187.252 28.9349L190.708 30.3901L194.164 31.8453C194.087 32.0289 193.979 32.1736 193.88 32.2687C193.79 32.3558 193.747 32.3652 193.815 32.3328L192.197 28.9497ZM190.708 30.3901L187.266 28.9017C186.601 30.44 186.578 32.1706 187.378 33.7716L190.732 32.0945L194.086 30.4175C194.185 30.6138 194.267 30.888 194.272 31.2075C194.276 31.5204 194.204 31.7542 194.15 31.8785L190.708 30.3901ZM190.732 32.0945L187.339 33.6913C187.689 34.4334 188.186 35.0944 188.82 35.6379L191.26 32.7907L193.701 29.9435C193.887 30.1029 194.032 30.2998 194.125 30.4978L190.732 32.0945ZM191.26 32.7907L188.944 35.7394C189.576 36.2365 190.284 36.582 191.025 36.788L192.029 33.1748L193.032 29.5616C193.198 29.6075 193.393 29.697 193.577 29.842L191.26 32.7907ZM192.029 33.1748L191.074 36.8013C191.836 37.0017 192.601 37.0507 193.344 36.9799L192.989 33.2468L192.633 29.5137C192.704 29.507 192.83 29.5079 192.983 29.5483L192.029 33.1748ZM192.989 33.2468L193.328 36.9814C194.187 36.9034 194.978 36.6568 195.687 36.3177L194.069 32.9347L192.451 29.5517C192.424 29.5647 192.495 29.5262 192.649 29.5122L192.989 33.2468Z" fill="#583618" mask="url(#path-3-outside-1_3941_950)"/>
</g>
</g>
<defs>
<filter id="filter0_d_3941_950" x="0" y="0" width="307" height="66" filterUnits="userSpaceOnUse" color-interpolation-filters="sRGB">
<feFlood flood-opacity="0" result="BackgroundImageFix"/>
<feColorMatrix in="SourceAlpha" type="matrix" values="0 0 0 0 0 0 0 0 0 0 0 0 0 0 0 0 0 0 127 0" result="hardAlpha"/>
<feOffset dy="2"/>
<feGaussianBlur stdDeviation="1"/>
<feComposite in2="hardAlpha" operator="out"/>
<feColorMatrix type="matrix" values="0 0 0 0 0.717647 0 0 0 0 0.301961 0 0 0 0 0 0 0 0 0.4 0"/>
<feBlend mode="normal" in2="BackgroundImageFix" result="effect1_dropShadow_3941_950"/>
<feBlend mode="normal" in="SourceGraphic" in2="effect1_dropShadow_3941_950" result="shape"/>
</filter>
<filter id="filter1_d_3941_950" x="100.042" y="13.4787" width="105.808" height="35.1209" filterUnits="userSpaceOnUse" color-interpolation-filters="sRGB">
<feFlood flood-opacity="0" result="BackgroundImageFix"/>
<feColorMatrix in="SourceAlpha" type="matrix" values="0 0 0 0 0 0 0 0 0 0 0 0 0 0 0 0 0 0 127 0" result="hardAlpha"/>
<feOffset dy="0.666833"/>
<feGaussianBlur stdDeviation="0.666833"/>
<feComposite in2="hardAlpha" operator="out"/>
<feColorMatrix type="matrix" values="0 0 0 0 0 0 0 0 0 0 0 0 0 0 0 0 0 0 0.25 0"/>
<feBlend mode="normal" in2="BackgroundImageFix" result="effect1_dropShadow_3941_950"/>
<feBlend mode="normal" in="SourceGraphic" in2="effect1_dropShadow_3941_950" result="shape"/>
</filter>
<linearGradient id="paint0_linear_3941_950" x1="153.5" y1="6" x2="153.5" y2="37.9515" gradientUnits="userSpaceOnUse">
<stop stop-color="white"/>
<stop offset="1" stop-color="white" stop-opacity="0"/>
</linearGradient>
</defs>
</svg>
